<svg xmlns="http://www.w3.org/2000/svg" width="36" height="36" id="email">
  <g fill="#fff" transform="translate(1 -1018.362)">
    <circle cx="17" cy="1036.362" r="18" fill="#239fdb" fill-rule="evenodd"></circle>
    <path fill="#0b5ecd" d="M19.96 35.871a18 18 0 0 0 1.099-.133 18 18 0 0 0 1.755-.394 18 18 0 0 0 1.707-.567 18 18 0 0 0 1.643-.736 18 18 0 0 0 1.56-.895A18 18 0 0 0 29.19 32.1a18 18 0 0 0 1.352-1.188 18 18 0 0 0 1.227-1.316 18 18 0 0 0 1.087-1.432 18 18 0 0 0 .942-1.535 18 18 0 0 0 .781-1.62 18 18 0 0 0 .617-1.689 18 18 0 0 0 .446-1.744 18 18 0 0 0 .082-.54l-8.528-8.528a.5.5 0 0 0-.322-.463.5.5 0 0 0-.049-.016.5.5 0 0 0-.097-.017.5.5 0 0 0-.028 0h-.008l-9.091-.016v.002l-4.963.012H8.5v.01a.5.5 0 0 0-.24.06.5.5 0 0 0-.043.027.5.5 0 0 0-.04.03.5.5 0 0 0-.034.035.5.5 0 0 0-.063.078.5.5 0 0 0-.025.043.5.5 0 0 0-.047.143.5.5 0 0 0-.006.048.5.5 0 0 0-.002.037v11.39a.5.5 0 0 0 .5.5l11.46 11.46zM9 13.418l2.389 1.492.006.006L9 13.42v-.002z" color="#000" font-family="sans-serif" font-weight="400" style="line-height:normal;text-indent:0;text-align:start;text-decoration-line:none;text-decoration-style:solid;text-decoration-color:#000;text-transform:none;block-progression:tb;isolation:auto;mix-blend-mode:normal" transform="translate(-1 1018.362)"></path>
    <path d="m16.6 1030.362-4.963.012H7.5v.01a.5.5 0 0 0-.24.061.5.5 0 0 0-.043.027.5.5 0 0 0-.04.03.5.5 0 0 0-.034.034.5.5 0 0 0-.063.078.5.5 0 0 0-.025.043.5.5 0 0 0-.047.143.5.5 0 0 0-.006.049.5.5 0 0 0-.002.035v11.388a.5.5 0 0 0 .5.5h13.732c.747.624 1.553 1.17 2.217 1.698a.5.5 0 0 0 .63-.012c.878-.729 1.913-1.521 2.763-2.407.85-.885 1.543-1.885 1.611-3.056a.5.5 0 0 0 .002-.027 2.81 2.81 0 0 0-2.264-2.748v-5.272a.5.5 0 0 0-.318-.54.5.5 0 0 0-.049-.017.5.5 0 0 0-.097-.018.5.5 0 0 0-.028 0h-.008l-9.091-.012zm-7.356 1.022h14.697l-7.341 4.593-7.356-4.593zm15.947.396v4.438c-.553.11-1.033.402-1.431.78-.505-.482-1.14-.833-1.893-.833a2.81 2.81 0 0 0-1.988.822 2.787 2.787 0 0 0-.832 1.98c-.001.144.01.282.025.419.098.933.548 1.714 1.131 2.384H8v-9.988l8.336 5.207a.5.5 0 0 0 .53 0l8.325-5.21zm-3.324 5.383v.01a1.8 1.8 0 0 1 1.485.77.5.5 0 0 0 .816 0 1.82 1.82 0 0 1 1.484-.772c1.005 0 1.79.796 1.797 1.791-.052.795-.561 1.605-1.33 2.406-.686.716-1.561 1.397-2.377 2.065-.663-.506-1.37-1.001-1.986-1.526a.5.5 0 0 0-.012-.01c-.003 0-.005-.01-.008-.01a8.77 8.77 0 0 1-.748-.728 4.754 4.754 0 0 1-.361-.461c-.061-.088-.127-.175-.18-.266a2.906 2.906 0 0 1-.295-.688c-.012-.041-.019-.085-.029-.128a2.716 2.716 0 0 1-.076-.637.5.5 0 0 0 0-.01 1.772 1.772 0 0 1 .143-.695 1.832 1.832 0 0 1 .967-.957c.217-.091.458-.14.71-.14z" color="#000" font-family="sans-serif" font-weight="400" overflow="visible" style="line-height:normal;text-indent:0;text-align:start;text-decoration-line:none;text-decoration-style:solid;text-decoration-color:#000;text-transform:none;block-progression:tb;isolation:auto;mix-blend-mode:normal"></path>
  </g>
</svg>
